
<svg xmlns="http://www.w3.org/2000/svg" class="custom-logo" width="486.94" height="175.78" viewBox="0 0 486.94 175.78"><g id="e9959724-bf1f-4a1e-9ad1-75bdaa29e6de" data-name="Layer 2"><g id="a3664f46-0472-4d12-9222-324fa5528575" data-name="Footer Logo"><g id="ac2acaa5-5a6d-437a-b9d4-176323bbd958" data-name="Logo"><g id="fdbb7ea4-920e-4762-a9bf-4e2ad5dbe8cd" data-name="Logo Text"><g id="e26273a3-ca6d-44a2-a102-1f7f8d446ff2" data-name="Prose"><path d="M239.77,79.61a39.18,39.18,0,0,1,10.59,3v4H215.45v-4a26.36,26.36,0,0,1,8.6-3V20.28a26,26,0,0,1-8.6-3v-4h13.21c5.56,0,13.52-.84,19.5-.84,14.78,0,29.45,5.34,29.45,22.64,0,16.46-14.25,23.9-29.45,23.9a74.42,74.42,0,0,1-8.39-.32Zm0-59.75V51.73a26.22,26.22,0,0,0,5.87.42c7.44,0,14.68-4.83,14.68-16.57,0-11.21-6-16.35-14.89-16.35A19,19,0,0,0,239.77,19.86Z" style="fill:#345073"/><path d="M307.6,46.28c-1.68.83-4.2,2.41-6,6.91V80A21.38,21.38,0,0,1,310,82.54v4.09h-30.4V82.54A26.45,26.45,0,0,1,286.53,80V41.66l-6.92-.84V36.74c4.51-2,13.94-3.25,18.45-3.78h3.56V46.9H302c2.31-6.18,9-14.25,16.56-13.94,1.57,2,2.62,6,3.36,9.23v4.09Z" style="fill:#345073"/><path d="M349.32,33C369,33,377.2,44.39,377.2,60.43c0,17.08-10.48,27.46-27.88,27.46-19,0-27.89-11.43-27.89-27.46C321.43,43.34,332.13,33,349.32,33Zm1.46,48.54C357.07,81.5,361,76,361,60.43c0-12.79-2.72-21.07-12.47-21.07-7.13,0-10.8,5.45-10.8,21.07C337.68,73.11,340.3,81.5,350.78,81.5Z" style="fill:#345073"/><path d="M397.43,77.93c1.57,1.57,4.19,3.15,8.81,3.15,7.65,0,13.41-4.2,13.41-11.32,0-15.41-33.54-13.84-33.54-37.74,0-13.73,10.69-20,24.63-20,8.49,0,15.94,1.15,21.81,3.67a119.13,119.13,0,0,1-2.83,19.18h-4.3L420.6,20.49a23,23,0,0,0-8.81-1.68c-5.87,0-10.48,3.15-10.48,9,0,15.93,34.07,15.2,34.07,38.15,0,13.94-9.54,21.91-27.89,21.91-8.8,0-19.07-2.52-22.11-4.93a112.65,112.65,0,0,1,3.46-20.44h4.29Z" style="fill:#345073"/><path d="M485.27,77.83c-2.3,4.82-9.95,10.06-21,10.06-17.4,0-26.73-10.8-26.73-27.46C437.58,42.5,447.43,33,464.1,33c14.47,0,25.58,7.34,21.91,28.41H453.83c.1,11,5.66,18.13,16.45,18.13,4.62,0,10.17-1.57,13-3.77ZM454.14,55.92H471c.94-10.9-1-17-7.34-17C458.13,38.94,455,42.4,454.14,55.92Z" style="fill:#345073"/></g><g id="b71dea15-3e1b-440c-b3a8-76e3d797d337" data-name="Legal"><path d="M317.3,98.94h16.49v1.91A14.62,14.62,0,0,1,329,102.3v28.55h9.7l3.37-9h2.06a73.85,73.85,0,0,1,.81,12.26H317.3v-1.91a14.21,14.21,0,0,1,4.13-1.46V102.3a10.6,10.6,0,0,1-4.13-1.45Z" style="fill:#345073"/><path d="M375.56,98.94a69.64,69.64,0,0,1-1,9.19h-2.06l-2.31-5.93h-9.4v12.32h6.13l2.21-3.87h1.61a58.79,58.79,0,0,1,0,11.1h-1.61l-2.21-4h-6.13v13.07h9.8l2.66-6.38h2.06a52,52,0,0,1,1,9.65H349.12v-1.91a13.7,13.7,0,0,1,4.12-1.46V102.3a14.31,14.31,0,0,1-4.12-1.45V98.94Z" style="fill:#345073"/><path d="M413,131.91a32.42,32.42,0,0,1-11.61,2.81c-11.46,0-18.4-6.08-18.4-18.19,0-13.07,8.95-18.2,17.95-18.2,4.42,0,8.59.61,10.85,1.76a46,46,0,0,1-1.2,9.65h-2.06l-2.82-7.64a11.48,11.48,0,0,0-3.87-.5c-5.53,0-10.5,4.07-10.5,14.93,0,8.79,4.37,14.92,10.65,14.92a9.63,9.63,0,0,0,5-1.35v-9.45a11.31,11.31,0,0,1-4.63-1.46v-1.91h13.73v1.91a6.24,6.24,0,0,1-3.12,1.46Z" style="fill:#345073"/><path d="M431.54,134.12H419.13v-1.91a11.69,11.69,0,0,1,3.57-1.46l13-32.42h3.71L452,130.75a11,11,0,0,1,3.77,1.46v1.91H440v-1.91a17.81,17.81,0,0,1,4.17-1.46l-2.92-8H430.14l-3,8a12,12,0,0,1,4.37,1.46Zm-.2-14.63h8.9l-3.27-9.6-1-4.32h-.1L434.81,110Z" style="fill:#345073"/><path d="M459.29,98.94h16.49v1.91A14.62,14.62,0,0,1,471,102.3v28.55h9.7l3.37-9h2.06a75,75,0,0,1,.8,12.26H459.29v-1.91a14.16,14.16,0,0,1,4.12-1.46V102.3a10.55,10.55,0,0,1-4.12-1.45Z" style="fill:#345073"/></g><g id="ba3f04da-c86d-433f-b12e-5ba831118fc4" data-name="hideable-objects"><g id="a7ede7f8-cd12-4da2-8f0c-f61d2a5a0e8a" data-name="Border Bottom"><rect x="316.3" y="164.71" width="170.64" height="2.56" style="fill:#87c7f5"/></g><g id="b188d2c3-beb0-41a2-9a80-29ac80d9db49" data-name="Service"><path d="M327,154.11a1.67,1.67,0,0,0-.63-1.4,8.36,8.36,0,0,0-2.25-1,16,16,0,0,1-2.59-1.06,4.32,4.32,0,0,1-2.59-3.85,3.73,3.73,0,0,1,.7-2.24,4.53,4.53,0,0,1,2-1.54,7.38,7.38,0,0,1,2.92-.56,6.76,6.76,0,0,1,2.91.6,4.72,4.72,0,0,1,2,1.7,4.55,4.55,0,0,1,.7,2.5h-3.13a2.13,2.13,0,0,0-.66-1.66,2.69,2.69,0,0,0-1.85-.59,2.83,2.83,0,0,0-1.78.5,1.55,1.55,0,0,0-.64,1.3,1.5,1.5,0,0,0,.75,1.27,8.36,8.36,0,0,0,2.19,1,9.41,9.41,0,0,1,3.9,2,4.07,4.07,0,0,1,1.22,3,3.77,3.77,0,0,1-1.49,3.17,6.48,6.48,0,0,1-4,1.14,7.75,7.75,0,0,1-3.2-.65,5.15,5.15,0,0,1-2.2-1.8,4.7,4.7,0,0,1-.76-2.64h3.15c0,1.71,1,2.57,3,2.57a2.88,2.88,0,0,0,1.74-.47A1.51,1.51,0,0,0,327,154.11Z" style="fill:#345073"/><path d="M354.94,151.45h-6v4.16H356v2.57h-10.2V142.65H356v2.6h-7V149h6Z" style="fill:#345073"/><path d="M376.94,152.5h-2.5v5.68h-3.13V142.65H377a6.31,6.31,0,0,1,4.16,1.23,4.29,4.29,0,0,1,1.46,3.47,4.94,4.94,0,0,1-.67,2.65,4.71,4.71,0,0,1-2.05,1.69l3.29,6.34v.15h-3.36Zm-2.5-2.6H377a2.56,2.56,0,0,0,1.83-.61,2.22,2.22,0,0,0,.65-1.69,2.38,2.38,0,0,0-.62-1.73,2.52,2.52,0,0,0-1.87-.62h-2.52Z" style="fill:#345073"/><path d="M403.87,154.33l3.44-11.68h3.49l-5.29,15.53h-3.27L397,142.65h3.48Z" style="fill:#345073"/><path d="M429.05,158.18h-3.13V142.65h3.13Z" style="fill:#345073"/><path d="M457.38,153a5.53,5.53,0,0,1-1.81,3.94,6.29,6.29,0,0,1-4.31,1.44,5.69,5.69,0,0,1-4.61-2,8.4,8.4,0,0,1-1.67-5.52v-.94a9.57,9.57,0,0,1,.77-3.95,5.9,5.9,0,0,1,2.21-2.62,6.79,6.79,0,0,1,7.58.53,5.94,5.94,0,0,1,1.86,4h-3.13a3.3,3.3,0,0,0-.82-2.18,3,3,0,0,0-2.15-.68,2.66,2.66,0,0,0-2.35,1.15,6.57,6.57,0,0,0-.8,3.56v1.17a7,7,0,0,0,.75,3.68,2.61,2.61,0,0,0,2.36,1.16,3.07,3.07,0,0,0,2.17-.68,3.12,3.12,0,0,0,.82-2.09Z" style="fill:#345073"/><path d="M482.07,151.45h-6v4.16h7.07v2.57h-10.2V142.65H483.1v2.6h-7.05V149h6Z" style="fill:#345073"/></g><g id="a384ebed-a975-4cda-a7cc-2b3b2863c414" data-name="local-background"><path d="M308.64,167.26H230.09A15.07,15.07,0,0,1,215,152.19V113.61a15.06,15.06,0,0,1,15.07-15.07h78.55Z" style="fill:#87c7f5"/><path d="M228.44,137.84h6.66v2.57h-9.79V124.88h3.13Z" style="fill:#345073"/><path d="M251.29,133a9.52,9.52,0,0,1-.79,4,6,6,0,0,1-2.28,2.66,6.13,6.13,0,0,1-3.39.94,6.21,6.21,0,0,1-3.37-.93,6,6,0,0,1-2.3-2.65,9.3,9.3,0,0,1-.83-4v-.76a9.49,9.49,0,0,1,.81-4,6.21,6.21,0,0,1,11.34,0,9.43,9.43,0,0,1,.81,4Zm-3.18-.71a6.68,6.68,0,0,0-.85-3.71,2.8,2.8,0,0,0-2.45-1.27,2.76,2.76,0,0,0-2.43,1.26,6.5,6.5,0,0,0-.87,3.67V133a6.67,6.67,0,0,0,.86,3.69,3,3,0,0,0,4.89,0,6.65,6.65,0,0,0,.85-3.68Z" style="fill:#345073"/><path d="M268.08,135.24a5.54,5.54,0,0,1-1.82,3.94,6.27,6.27,0,0,1-4.31,1.44,5.67,5.67,0,0,1-4.6-2,8.35,8.35,0,0,1-1.67-5.52v-1a9.39,9.39,0,0,1,.77-3.94,5.84,5.84,0,0,1,2.21-2.62,6.79,6.79,0,0,1,7.58.53,6,6,0,0,1,1.86,4H265a3.25,3.25,0,0,0-.82-2.18,3,3,0,0,0-2.14-.68,2.66,2.66,0,0,0-2.35,1.15,6.48,6.48,0,0,0-.8,3.56v1.17a7,7,0,0,0,.75,3.68A2.6,2.6,0,0,0,262,138a2.62,2.62,0,0,0,3-2.77Z" style="fill:#345073"/><path d="M281.29,137.21H275.8l-1.05,3.2h-3.33l5.66-15.53H280l5.69,15.53h-3.33Zm-4.65-2.59h3.81l-1.92-5.81Z" style="fill:#345073"/><path d="M292.8,137.84h6.66v2.57h-9.79V124.88h3.13Z" style="fill:#345073"/></g></g></g><g id="b71e2210-5edd-4512-b7e9-d5a1a2c7841e" data-name="Icon"><g id="a615da61-3804-4c8e-811f-6149cf6ee405" data-name="Icon Background"><path d="M173.3,7.4,33.35,0A31.74,31.74,0,0,0,.27,35.85l6.6,71.26a31.73,31.73,0,0,0,31.47,27.63H76.22c19.61,32.12,39.54,41,39.54,41l8.33-41h44.32a31.75,31.75,0,0,0,31.5-27.87l3.29-68.82C205.44,19.76,191.7,8.34,173.3,7.4Z" style="fill:#87c7f5"/></g><g id="e04cbef2-3d4d-4ab0-8211-c8928ed3e292" data-name="Family Fill"><path d="M170.73,134.65V102.13a10.48,10.48,0,0,0-10.48-10.48H143.31a11.14,11.14,0,0,0-1.84.17l0-1A17.92,17.92,0,0,0,123.56,72.9H90.79a17.89,17.89,0,0,0-15.38,8.75A11.37,11.37,0,0,0,72,81.13H46.82A11.44,11.44,0,0,0,35.38,92.56v42c1,.09,2,.14,3,.14H76.22C90,157.27,103.89,168.38,111,173h5.35l7.77-38.27h44.32C169.19,134.74,170,134.7,170.73,134.65Z" style="fill:#fff"/><circle cx="151.78" cy="73.71" r="10.26" style="fill:#fff"/><circle cx="107.17" cy="45.91" r="17.57" style="fill:#fff"/><circle cx="59.09" cy="58.21" r="13.88" style="fill:#fff"/></g><path id="ae88d56d-57b8-45ca-a6e3-509a0291452d" data-name="Voice Bubble" d="M173.3,7.4,33.35,0A31.74,31.74,0,0,0,.27,35.85l6.6,71.26a31.73,31.73,0,0,0,31.47,27.63H76.22c19.61,32.12,39.54,41,39.54,41l8.33-41h44.32a31.75,31.75,0,0,0,31.5-27.87l3.29-68.82C205.44,19.76,191.7,8.34,173.3,7.4Z" style="fill:none"/><path id="a6a91adb-bc1f-4ebe-9abb-c488a1e9f255" data-name="Family Stroke" d="M173.3,7.4,33.35,0c-.55,0-1.1,0-1.65,0A31.74,31.74,0,0,0,.27,35.85l6.6,71.26a31.75,31.75,0,0,0,21.47,26h0c.52.17,1,.32,1.56.47l.49.12,1.12.28.56.11c.38.08.76.15,1.15.21l.5.08a32,32,0,0,0,4.62.34H76.22c19.61,32.12,39.54,41,39.54,41l.26-1.27.3-1.5h0l7.77-38.27h44.32c.78,0,1.55,0,2.32-.09h0a31.73,31.73,0,0,0,29.18-27.78l3.29-68.82C205.44,19.76,191.7,8.34,173.3,7.4Zm-135,117.77a22.29,22.29,0,0,1-3-.22V92.56A11.44,11.44,0,0,1,46.82,81.13h21a24.85,24.85,0,0,0-2,9.69v34.35Zm6.87-67A13.88,13.88,0,1,1,59.09,72.09,13.87,13.87,0,0,1,45.21,58.21Zm78.88,67h-7.82l-1.56,7.67-5.46,26.92c-6.68-5.65-15.77-15.1-24.87-30l-2.79-4.59H72.86V90.82a17.86,17.86,0,0,1,3.58-10.71l0,0a15.15,15.15,0,0,1,1.15-1.37.27.27,0,0,1,.07-.08,14.4,14.4,0,0,1,1.25-1.22l.08-.08a17.45,17.45,0,0,1,1.44-1.13A17.79,17.79,0,0,1,90.79,72.9h32.77a17.83,17.83,0,0,1,11.2,3.94,17.39,17.39,0,0,0,4.11,8.36,17.53,17.53,0,0,0-13.09,16.93v23ZM89.6,45.91a17.58,17.58,0,1,1,17.57,17.57A17.58,17.58,0,0,1,89.6,45.91Zm78.81,79.26H132.83v-23a10.47,10.47,0,0,1,8.64-10.31c.3,0,.59-.09.89-.12s.63,0,.95,0h16.94a10.48,10.48,0,0,1,10.48,10.48V125A22.24,22.24,0,0,1,168.41,125.17ZM141.52,73.71a10.29,10.29,0,1,1,5.7,9.19,10.64,10.64,0,0,1-2.29-1.56l-.05,0a10.39,10.39,0,0,1-1.74-2.06l-.09-.14a10,10,0,0,1-.55-1c0-.07-.07-.13-.1-.19a12.69,12.69,0,0,1-.45-1.22l0-.2a9.73,9.73,0,0,1-.24-1.07c0-.12,0-.24,0-.35a11.71,11.71,0,0,1-.09-1.32ZM193.7,36.88l0,.36,0,.35L190.37,106a22.19,22.19,0,0,1-12.6,17v-21A17.53,17.53,0,0,0,164.68,85.2,17.29,17.29,0,1,0,135.2,68.76a24.66,24.66,0,0,0-11.64-2.9h-2a24.62,24.62,0,1,0-28.73,0h-2A24.81,24.81,0,0,0,75.54,71.1a20.92,20.92,0,1,0-30,3.05A18.49,18.49,0,0,0,28.34,92.56v30.2a22.19,22.19,0,0,1-12-16.73L9.8,35l0-.18,0-.18a21.85,21.85,0,0,1,5.32-17.49A22.12,22.12,0,0,1,31.7,9.57l1.15,0,140,7.37c7.62.38,14.05,3.06,17.64,7.33C193.23,27.59,194.32,31.83,193.7,36.88Z" style="fill:#345073"/></g></g></g></g></svg>