<svg xmlns="http://www.w3.org/2000/svg" class="custom-logo" width="277.02" height="100" viewBox="0 0 277.02 100"><g id="ec40e62d-2d0a-4f03-b68d-fa9ee52e3b89" data-name="Layer 2"><g id="af93b338-5110-400e-bba3-0d80602c1d17" data-name="Layer 4"><g id="b5721b33-4e64-4260-a4ac-d226eeffae32" data-name="Logo"><g id="e9a1c876-f2e5-4b58-a4e5-508b7616f828" data-name="Logo Text"><g id="fb8f962d-fc8e-4da9-8ab2-e5cbd0925997" data-name="Prose"><path d="M136.41,45.29a22.2,22.2,0,0,1,6,1.73v2.26H122.57V47a14.92,14.92,0,0,1,4.89-1.73V11.54a15,15,0,0,1-4.89-1.73V7.54h7.51c3.17,0,7.7-.48,11.1-.48,8.4,0,16.75,3.05,16.75,12.89,0,9.36-8.11,13.59-16.75,13.59a42.7,42.7,0,0,1-4.77-.18Zm0-34V29.43a14.75,14.75,0,0,0,3.33.24c4.24,0,8.35-2.75,8.35-9.43,0-6.38-3.4-9.3-8.46-9.3A10.77,10.77,0,0,0,136.41,11.3Z" style="fill:#345073"/><path d="M175,26.33a6.71,6.71,0,0,0-3.4,3.93V45.53A12.1,12.1,0,0,1,176.36,47v2.32H159.07V47A15,15,0,0,1,163,45.53V23.7l-3.93-.47V20.9c2.56-1.13,7.93-1.85,10.49-2.15h2v7.93h.24c1.31-3.51,5.13-8.11,9.42-7.93.9,1.14,1.49,3.4,1.91,5.25v2.33Z" style="fill:#345073"/><path d="M198.73,18.75c11.21,0,15.86,6.5,15.86,15.63,0,9.72-6,15.62-15.86,15.62-10.8,0-15.87-6.5-15.87-15.62C182.86,24.66,189,18.75,198.73,18.75Zm.83,27.61c3.58,0,5.78-3.1,5.78-12,0-7.28-1.55-12-7.09-12-4.06,0-6.14,3.1-6.14,12C192.11,41.59,193.6,46.36,199.56,46.36Z" style="fill:#345073"/><path d="M226.1,44.33a6.64,6.64,0,0,0,5,1.79c4.35,0,7.63-2.38,7.63-6.44,0-8.76-19.08-7.87-19.08-21.46,0-7.82,6.08-11.39,14-11.39a32,32,0,0,1,12.41,2.08,67,67,0,0,1-1.62,10.92H242l-2.74-8.17a13,13,0,0,0-5-1c-3.34,0-6,1.79-6,5.13,0,9.07,19.39,8.65,19.39,21.71,0,7.93-5.43,12.46-15.87,12.46-5,0-10.85-1.43-12.58-2.8a64.27,64.27,0,0,1,2-11.63h2.44Z" style="fill:#345073"/><path d="M276.07,44.28C274.76,47,270.41,50,264.15,50c-9.9,0-15.21-6.14-15.21-15.62,0-10.2,5.6-15.63,15.09-15.63,8.23,0,14.55,4.18,12.46,16.16H258.18c.06,6.26,3.22,10.32,9.36,10.32a13.56,13.56,0,0,0,7.4-2.15ZM258.36,31.81H268c.54-6.2-.6-9.66-4.17-9.66C260.63,22.15,258.84,24.12,258.36,31.81Z" style="fill:#345073"/></g><g id="e4f7b31d-1c84-4f3c-ba2b-de94c23f4cc2" data-name="Legal"><path d="M180.51,56.28h9.38v1.09a8.14,8.14,0,0,1-2.74.83V74.44h5.52l1.91-5.12h1.17a41.63,41.63,0,0,1,.46,7h-15.7V75.21a8.44,8.44,0,0,1,2.35-.83V58.2a5.93,5.93,0,0,1-2.35-.83Z" style="fill:#345073"/><path d="M213.65,56.28a36.85,36.85,0,0,1-.57,5.24h-1.17l-1.32-3.38h-5.34v7h3.49L210,63h.92a33.35,33.35,0,0,1,0,6.32H210L208.74,67h-3.49v7.43h5.57l1.52-3.63h1.17a30.33,30.33,0,0,1,.57,5.49H198.61V75.21a8.13,8.13,0,0,1,2.35-.83V58.2a8.21,8.21,0,0,1-2.35-.83V56.28Z" style="fill:#345073"/><path d="M234.93,75a18.45,18.45,0,0,1-6.61,1.6c-6.52,0-10.46-3.46-10.46-10.35,0-7.43,5.09-10.35,10.2-10.35a15.3,15.3,0,0,1,6.18,1,25.9,25.9,0,0,1-.69,5.49h-1.17l-1.6-4.34a6.5,6.5,0,0,0-2.2-.29c-3.15,0-6,2.32-6,8.49,0,5,2.49,8.49,6.06,8.49a5.37,5.37,0,0,0,2.86-.77V68.64a6.51,6.51,0,0,1-2.63-.83V66.72h7.81v1.09a3.55,3.55,0,0,1-1.77.83Z" style="fill:#345073"/><path d="M245.5,76.3h-7.06V75.21a6.9,6.9,0,0,1,2-.83l7.38-18.44H250l7.18,18.44a6.51,6.51,0,0,1,2.15.83V76.3h-9V75.21a10.59,10.59,0,0,1,2.37-.83l-1.66-4.54H244.7L243,74.38a7,7,0,0,1,2.48.83ZM245.39,68h5.06l-1.86-5.46-.54-2.46H248l-.63,2.52Z" style="fill:#345073"/><path d="M261.29,56.28h9.38v1.09a8.13,8.13,0,0,1-2.75.83V74.44h5.52l1.92-5.12h1.17a42.72,42.72,0,0,1,.46,7h-15.7V75.21a8.5,8.5,0,0,1,2.34-.83V58.2a5.94,5.94,0,0,1-2.34-.83Z" style="fill:#345073"/></g><g id="ac4cc873-59ab-4c83-8d15-27b9515a4359" data-name="hideable-objects"><g id="ee7fcb12-761b-42e1-84a8-3f4473dca8b5" data-name="Border Bottom"><rect x="179.94" y="93.7" width="97.08" height="1.46" style="fill:#87c7f5"/></g><g id="f187c8e5-14b3-45a3-b81b-c14ffe83d9ea" data-name="Service"><path d="M186.05,87.67a1,1,0,0,0-.35-.79,4.42,4.42,0,0,0-1.29-.58,9.23,9.23,0,0,1-1.47-.61,2.45,2.45,0,0,1-1.47-2.19,2.17,2.17,0,0,1,.39-1.27,2.62,2.62,0,0,1,1.14-.88,4.2,4.2,0,0,1,1.66-.32,3.77,3.77,0,0,1,1.65.35,2.67,2.67,0,0,1,1.13,1,2.56,2.56,0,0,1,.4,1.42h-1.78a1.21,1.21,0,0,0-.38-.94,1.54,1.54,0,0,0-1.05-.34,1.6,1.6,0,0,0-1,.29.86.86,0,0,0-.37.74.83.83,0,0,0,.43.72,4.51,4.51,0,0,0,1.25.55,5.33,5.33,0,0,1,2.22,1.16,2.33,2.33,0,0,1,.69,1.72,2.15,2.15,0,0,1-.85,1.8,3.71,3.71,0,0,1-2.29.65,4.52,4.52,0,0,1-1.82-.37,2.92,2.92,0,0,1-1.25-1,2.62,2.62,0,0,1-.43-1.5H183c0,1,.57,1.46,1.71,1.46a1.7,1.7,0,0,0,1-.26A.88.88,0,0,0,186.05,87.67Z" style="fill:#345073"/><path d="M201.92,86.16H198.5v2.37h4V90h-5.8V81.16h5.79v1.47h-4v2.1h3.42Z" style="fill:#345073"/><path d="M214.44,86.75H213V90h-1.79V81.16h3.22a3.64,3.64,0,0,1,2.37.69,2.46,2.46,0,0,1,.83,2,2.79,2.79,0,0,1-.38,1.51,2.63,2.63,0,0,1-1.17,1L218,89.9V90h-1.92ZM213,85.28h1.44a1.49,1.49,0,0,0,1-.35,1.27,1.27,0,0,0,.37-1,1.35,1.35,0,0,0-.35-1,1.43,1.43,0,0,0-1.07-.36H213Z" style="fill:#345073"/><path d="M229.76,87.8l2-6.64h2l-3,8.83h-1.86l-3-8.83h2Z" style="fill:#345073"/><path d="M244.09,90H242.3V81.16h1.79Z" style="fill:#345073"/><path d="M260.2,87.05a3.12,3.12,0,0,1-1,2.24,3.56,3.56,0,0,1-2.45.82A3.24,3.24,0,0,1,254.1,89a4.8,4.8,0,0,1-.95-3.14v-.54a5.32,5.32,0,0,1,.44-2.25,3.41,3.41,0,0,1,1.25-1.49,3.87,3.87,0,0,1,4.32.3,3.44,3.44,0,0,1,1.06,2.3h-1.79a1.89,1.89,0,0,0-.46-1.24,1.76,1.76,0,0,0-1.23-.38,1.48,1.48,0,0,0-1.33.65,3.67,3.67,0,0,0-.46,2v.67a4,4,0,0,0,.43,2.09,1.47,1.47,0,0,0,1.34.66,1.76,1.76,0,0,0,1.23-.38,1.79,1.79,0,0,0,.47-1.19Z" style="fill:#345073"/><path d="M274.25,86.16h-3.42v2.37h4V90H269V81.16h5.79v1.47h-4v2.1h3.42Z" style="fill:#345073"/></g><g id="e8cfde4d-bc3a-4c57-922c-d125d4e440dd" data-name="local-background"><path d="M175.59,95.15H130.9a8.58,8.58,0,0,1-8.58-8.57v-22a8.58,8.58,0,0,1,8.58-8.57h44.69Z" style="fill:#87c7f5"/><path d="M130,78.42h3.79v1.46h-5.57V71.05H130Z" style="fill:#345073"/><path d="M143,75.66a5.47,5.47,0,0,1-.45,2.29,3.41,3.41,0,0,1-3.23,2,3.6,3.6,0,0,1-1.92-.53,3.45,3.45,0,0,1-1.3-1.51,5.17,5.17,0,0,1-.47-2.25v-.44a5.32,5.32,0,0,1,.46-2.29,3.44,3.44,0,0,1,3.22-2.06,3.53,3.53,0,0,1,1.93.54A3.48,3.48,0,0,1,142.5,73a5.47,5.47,0,0,1,.46,2.29Zm-1.81-.4a3.74,3.74,0,0,0-.49-2.11,1.7,1.7,0,0,0-2.77,0,3.75,3.75,0,0,0-.5,2.09v.43a3.88,3.88,0,0,0,.49,2.1,1.57,1.57,0,0,0,1.4.75,1.56,1.56,0,0,0,1.38-.72,3.79,3.79,0,0,0,.49-2.1Z" style="fill:#345073"/><path d="M152.51,76.94a3.16,3.16,0,0,1-1,2.24A3.56,3.56,0,0,1,149,80a3.23,3.23,0,0,1-2.62-1.14,4.75,4.75,0,0,1-1-3.14v-.54a5.47,5.47,0,0,1,.44-2.25,3.49,3.49,0,0,1,1.26-1.49,3.54,3.54,0,0,1,1.9-.52,3.5,3.5,0,0,1,2.41.82,3.39,3.39,0,0,1,1.06,2.3h-1.78a1.89,1.89,0,0,0-.47-1.24,1.73,1.73,0,0,0-1.22-.38,1.51,1.51,0,0,0-1.34.65,3.77,3.77,0,0,0-.45,2v.67a3.91,3.91,0,0,0,.43,2.09,1.47,1.47,0,0,0,1.34.66,1.76,1.76,0,0,0,1.23-.38,1.79,1.79,0,0,0,.47-1.19Z" style="fill:#345073"/><path d="M160,78.06H156.9l-.59,1.82h-1.9l3.22-8.83h1.65l3.24,8.83h-1.89Zm-2.65-1.48h2.17l-1.09-3.3Z" style="fill:#345073"/><path d="M166.58,78.42h3.78v1.46h-5.57V71.05h1.79Z" style="fill:#345073"/></g></g></g><g id="f891ccf2-b3af-41a4-85bb-2feb26b997ea" data-name="Icon"><g id="b5370b47-655c-48ed-a86d-fe86069e12f9" data-name="Icon Background"><path d="M98.59,4.21,19,0A18.05,18.05,0,0,0,.16,20.39L3.91,60.94a18,18,0,0,0,17.9,15.71H43.36C54.52,94.92,65.86,100,65.86,100l4.73-23.35H95.81A18.05,18.05,0,0,0,113.73,60.8l1.87-39.15C116.88,11.24,109.06,4.74,98.59,4.21Z" style="fill:#87c7f5"/></g><g id="efa2990d-441e-4dd3-9fcc-949fcbb11c15" data-name="Family Fill"><path d="M97.13,76.6V58.1a6,6,0,0,0-6-6H81.53a6,6,0,0,0-1,.1v-.57a10.2,10.2,0,0,0-10.2-10.2H51.65a10.18,10.18,0,0,0-8.75,5,6.56,6.56,0,0,0-1.94-.3H26.63a6.51,6.51,0,0,0-6.5,6.51V76.58c.55,0,1.11.07,1.68.07H43.36C51.19,89.47,59.1,95.79,63.13,98.42h3.05l4.41-21.77H95.81C96.25,76.65,96.69,76.63,97.13,76.6Z" style="fill:#fff"/><circle cx="86.35" cy="41.93" r="5.84" style="fill:#fff"/><circle cx="60.97" cy="26.12" r="10" style="fill:#fff"/><circle cx="33.62" cy="33.12" r="7.89" style="fill:#fff"/></g><path id="ed3ed0d8-8119-4240-af17-b9b80a20e0d7" data-name="Voice Bubble" d="M98.59,4.21,19,0A18.05,18.05,0,0,0,.16,20.39L3.91,60.94a18,18,0,0,0,17.9,15.71H43.36C54.52,94.92,65.86,100,65.86,100l4.73-23.35H95.81A18.05,18.05,0,0,0,113.73,60.8l1.87-39.15C116.88,11.24,109.06,4.74,98.59,4.21Z" style="fill:none"/><path id="ab9f8327-d9ea-4809-a1b4-196169906dea" data-name="Family Stroke" d="M98.59,4.21,19,0,18,0A18,18,0,0,0,.16,20.39L3.91,60.94a18.06,18.06,0,0,0,12.21,14.8h0L17,76l.28.08.64.15.31.07.66.11.28,0a17.61,17.61,0,0,0,2.63.19H43.36C54.52,94.92,65.86,100,65.86,100l.14-.72.18-.86h0l4.41-21.77H95.81c.44,0,.88,0,1.32-.05h0a18.06,18.06,0,0,0,16.6-15.8l1.87-39.15C116.88,11.24,109.06,4.74,98.59,4.21Zm-76.78,67a13.28,13.28,0,0,1-1.68-.12V52.66a6.51,6.51,0,0,1,6.5-6.51H38.56a14.1,14.1,0,0,0-1.11,5.52V71.21Zm3.91-38.09A7.9,7.9,0,1,1,33.62,41,7.9,7.9,0,0,1,25.72,33.12ZM70.59,71.21H66.14l-.88,4.36L62.15,90.89A69.67,69.67,0,0,1,48,73.82l-1.6-2.61h-5V51.67a10.18,10.18,0,0,1,1.45-5.22,10.38,10.38,0,0,1,.59-.88l0,0a9.59,9.59,0,0,1,.65-.78l0,0a9.49,9.49,0,0,1,.72-.7L45,44a8.67,8.67,0,0,1,.82-.65,10.15,10.15,0,0,1,5.87-1.87H70.29a10.11,10.11,0,0,1,6.38,2.25A9.84,9.84,0,0,0,79,48.47a10,10,0,0,0-7.44,9.63V71.21ZM51,26.12a10,10,0,1,1,10,10A10,10,0,0,1,51,26.12ZM95.81,71.21H75.56V58.1a6,6,0,0,1,4.92-5.86,4.46,4.46,0,0,1,.51-.07,4.89,4.89,0,0,1,.54,0h9.64a6,6,0,0,1,6,6v13C96.69,71.18,96.25,71.21,95.81,71.21ZM80.51,41.93a5.84,5.84,0,1,1,3.24,5.23,6.11,6.11,0,0,1-1.3-.89l0,0a6.14,6.14,0,0,1-1-1.17L81.38,45a4,4,0,0,1-.31-.58L81,44.3a5.13,5.13,0,0,1-.25-.69.45.45,0,0,1,0-.11c-.06-.2-.1-.41-.14-.61l0-.2a6.3,6.3,0,0,1,0-.75ZM110.2,21l0,.2v.21L108.3,60.32a12.63,12.63,0,0,1-7.16,9.7V58.1a10,10,0,0,0-7.45-9.63,9.84,9.84,0,1,0-16.77-9.35,14.09,14.09,0,0,0-6.63-1.65H69.14a14,14,0,1,0-16.34,0H51.65a14.15,14.15,0,0,0-8.68,3,11.9,11.9,0,1,0-17,1.73,10.52,10.52,0,0,0-9.8,10.48V69.84a12.66,12.66,0,0,1-6.8-9.52L5.57,19.89v-.2a12.42,12.42,0,0,1,3-10A12.58,12.58,0,0,1,18,5.44l.65,0L98.32,9.65c4.33.22,8,1.74,10,4.17A9,9,0,0,1,110.2,21Z" style="fill:#345073"/></g></g></g></g></svg>